<svg xmlns="http://www.w3.org/2000/svg" viewBox="0 0 486.18 484.38"><defs><style>.cls-1{fill:#a1834b;}.cls-1,.cls-10,.cls-11,.cls-12,.cls-13,.cls-14,.cls-15,.cls-16,.cls-17,.cls-18,.cls-19,.cls-2,.cls-20,.cls-21,.cls-22,.cls-23,.cls-24,.cls-25,.cls-26,.cls-27,.cls-28,.cls-29,.cls-3,.cls-30,.cls-31,.cls-32,.cls-33,.cls-34,.cls-35,.cls-36,.cls-37,.cls-38,.cls-39,.cls-4,.cls-40,.cls-41,.cls-5,.cls-6,.cls-7,.cls-8,.cls-9{fill-rule:evenodd;}.cls-2{fill:#7a6233;}.cls-3{fill:#947843;}.cls-4{fill:#c8ac75;}.cls-5{fill:#907540;}.cls-6{fill:#a4874f;}.cls-7{fill:#b6934f;}.cls-8{fill:#644d1a;}.cls-9{fill:#bea56d;}.cls-10{fill:#c9ae77;}.cls-11{fill:#987b49;}.cls-12{fill:#4e3804;}.cls-13{fill:#5a4514;}.cls-14{fill:#6d5522;}.cls-15{fill:#f6efd8;}.cls-16{fill:#695220;}.cls-17{fill:#cfb67c;}.cls-18{fill:#bca167;}.cls-19{fill:#a68b56;}.cls-20{fill:#dbc086;}.cls-21{fill:#6b5120;}.cls-22{fill:#4e3908;}.cls-23{fill:#cdb378;}.cls-24{fill:#fcfbf5;}.cls-25{fill:#c2a463;}.cls-26{fill:#dfcfa0;}.cls-27{fill:#e1d09a;}.cls-28{fill:#fcfcf9;}.cls-29{fill:#d2c08c;}.cls-30{fill:#cbb683;}.cls-31{fill:#b6a171;}.cls-32{fill:#bea266;}.cls-33{fill:#dcc78e;}.cls-34{fill:#9a7d47;}.cls-35{fill:#fbfaf2;}.cls-36{fill:#4f3706;}.cls-37{fill:#e2d3a1;}.cls-38{fill:#503a08;}.cls-39{fill:#4d3708;}.cls-40{fill:#d3c28c;}.cls-41{fill:#fafaf2;}</style></defs><title>Danda</title><g id="Layer_1" data-name="Layer 1"><path class="cls-1" d="M1021.83,754a5.6,5.6,0,0,1-.74.36l-2.72.71a14.58,14.58,0,0,1-4-4.13c-2.31-10.59-6.87-20.21-12.18-29.58-4.36-7.68-4-16.47-4.43-24.89A45.33,45.33,0,0,0,993.94,680c-4.36-9.8-7.54-20.12-11.3-30.19a37.14,37.14,0,0,0-5.51-10.12c-8.21-10.54-12.62-22.86-15.63-35.75-3.56-15.23-6-30.76-12.53-45.17-.7-1.54-1.2-3.12-2.9-3.85-1.18.89,1.09-4.34-1.73-.91a8.46,8.46,0,0,1-8.71,3c-1.91-1.91-1.14-3.93.34-5.34,6.1-5.8,11.72-12.14,18.58-17.1a5.67,5.67,0,0,1,4.12-1.23c2.81,2.1.59,4.23,0,6.32-.89,3.2-4.14,5.26-4.33,8.81-.1,3.36,2.3,5.74,3.49,8.56,6.7,16,9.27,32.88,12.06,49.78,1.25,7.58,3.57,15,8.29,21.29a3.9,3.9,0,0,1,2.4,2.45c.56,4.34,4.2,6.8,6.37,10.13a72,72,0,0,1,10,24.95c1.21,5.79,4.91,10.5,6.37,16.36s3,11.6,2.21,17.72a11.49,11.49,0,0,0,.91,7c3.08,12.55,9.09,23.85,14.86,35.27C1022.69,746,1024.78,749.9,1021.83,754Z" transform="translate(-680.85 -279.07)"/><path class="cls-2" d="M1016.28,752.42c1.79,0,2.55.89,2.1,2.68-1.82,4.37-6.49,5.46-9.61,8.33-3.17.26-5.4-2.38-8.37-2.75-4.23-1.7-5.09-5.68-6.38-9.37-2.06-8-3.78-16.16-6.37-24.07-2-6.09-4.86-11.56-10.09-15.52a30.48,30.48,0,0,1-11.64-17c-4.51-11.17-9.08-22.36-12.43-33.89-2.67-9.18-2.15-18.92-1.44-28.49a2.72,2.72,0,0,1,1.83-.67c3.57,2,2.4,5.85,3.53,8.81.5,12.88,2.61,25.26,9,36.83,4.18,7.58,5.31,16.55,10,24a25.59,25.59,0,0,0,5,5.84C993,717.35,994.13,732,997.7,745.59c1.39,5.28,3.29,10,7.24,12.39-3-1.16-4.34-5-6.05-8.39-.82-1.64-.54-3.32,1.83-3.66,2.17.57,2.55,2.78,3.83,4.16,4.22,6.32,7.09,7,11.14,2.82Z" transform="translate(-680.85 -279.07)"/><path class="cls-3" d="M821.85,570.38c-3.43.88-5.52,3.77-8.36,5.55-9.88,9.28-21.79,14.74-34.58,18.71-6.17,1.91-12.23,4.23-18.2,6.71-7.77,3.23-15.44,1.51-23.17.14a3.68,3.68,0,0,1,2.33-2.92c.73-.07-.2-.23.53-.14,21,2.55,38.39-8.84,56.91-15.45,7.29-2.6,12.19-10,19.4-13.48,1.83-.71,3.63-1.63,5.69-.94C823.45,569.54,823.32,570.16,821.85,570.38Z" transform="translate(-680.85 -279.07)"/><path class="cls-1" d="M739.24,599.87l-1.7,1.62c-8.37.95-15.73,4.77-23.32,8-5.41,2.3-10.12,6.38-16.37,6.63,0-.33.06-.67.09-1,2.28-4.28,7.13-4.23,10.75-6.19,6.29-3.4,12.57-7,19.45-9.1C731.73,598.74,735.56,597.25,739.24,599.87Z" transform="translate(-680.85 -279.07)"/><path class="cls-1" d="M697.86,616.12c-3.75,3.65-7.54,1.69-11-.28s-6.47-4.3-5.52-9a1.12,1.12,0,0,1,1.31-.57c3.18,3.09,4.69,8.32,10.44,8.12,1.63.51,4-.87,4.78,1.79Z" transform="translate(-680.85 -279.07)"/><path class="cls-4" d="M682.4,606.45l-1.08.39c-1.32-3.27.5-6.06,1.4-9l2.19-.67c.93.77.74,1.75.54,2.75C684.47,602.12,684,604.53,682.4,606.45Z" transform="translate(-680.85 -279.07)"/><path class="cls-5" d="M1037.07,490.72l-.36-.74c1.87-2.85,5-2.4,7.76-3,10.53,0,20.41-2.82,30-6.91a68.54,68.54,0,0,1,7.81-2.87c13.13-3.79,25.12-9.52,34.52-19.79,6.88-5,15-6.79,23-8.74,8.92-2.17,17.87-4.17,24.69-11a1.92,1.92,0,0,1,1.06,2.47,13.63,13.63,0,0,1-10.47,8.17,191.3,191.3,0,0,0-29.15,8.5,25.82,25.82,0,0,0-11.85,8.64c-4.08,5.17-9,9.13-15.48,11.12a154.28,154.28,0,0,0-19.78,7.32c-11.87,5.5-24.25,7.35-37.16,6.6C1040.16,490.85,1038.68,491.92,1037.07,490.72Z" transform="translate(-680.85 -279.07)"/><path class="cls-6" d="M1165.58,440.11l-.89-2.29c-2.08-1.59-1.4-4.06-2.12-6.66.59,3.6-.78,5.93-2.8,8.06a22.53,22.53,0,0,1-12,6.58c-9.68,2-18.62,6.22-28.1,8.81-3.6,1-6.65,3.36-9.56,5.55-6.6,5-14,8-21.57,11.24-19.18,8.17-39.48,12.5-59.4,18.13-8.09,2.29-15.29,6.55-22.73,10.26a313.47,313.47,0,0,1-39.45,16.31,6.3,6.3,0,0,1-4.89-.18,4.68,4.68,0,0,1-2.23-3.17c-.19-1.8.25-3.28,2.14-4a5.25,5.25,0,0,1,1.89.4,5,5,0,0,0,2.74-.06c14.87-5.55,30.18-10,44-18a28.1,28.1,0,0,1,4.34-2.18c3.29-1.3,6.13-3.68,9.79-4.1,24.88-7.15,49.75-14.31,73.65-24.37,2.54-1.07,4.78-2.81,7.14-4.25,12.71-8.38,27.64-11.39,41.46-17.09a28.14,28.14,0,0,0,7.79-4.18c1.23-1,2.15-2.17.47-3.61-.55-.21-1.08-.43-1.64-.6-4.72-.53-8.76,1.65-12.71,3.54-14,6.71-27.76,14-44.06,12.9a10.16,10.16,0,0,0-4.27,1.06c-13.45,5.31-27.07,10.14-40.61,15.21-5.23,2-9.75,5.34-14.32,8.33-8.1,5.3-16.91,8.26-26.1,10.4-10,2.34-20.42,3.27-29.78,8.19a24,24,0,0,1-10.16,2.52c-4.29.2-8.24,2.08-12,4.2-3.43,2-5.79.37-7.36-2.48-1.93-3.51.56-5.13,3.39-6.14,11-3.9,21.52-9.05,33.33-10.27a18,18,0,0,0,7.23-2.76,9.77,9.77,0,0,1,8-1c3.2,1,6.29-.11,9.15-1,6.8-2.21,14.53-2,20.14-7.47,3-2,6.27-3.75,8.62-6.64l0,0a26.2,26.2,0,0,1,10.35-6.23c9.61-3.43,19.31-6.66,28.67-10.69,7.89-3.4,15.95-4.3,24.32-4,9.42,1.23,17.49-2.61,25.53-6.71,5.52-2.82,11.18-5.38,16.77-8.06,5.57-2.44,10.86-2.09,15.83,1.54C1166.23,429.89,1168.68,434.63,1165.58,440.11Z" transform="translate(-680.85 -279.07)"/><path class="cls-7" d="M960.71,512l1.24,3.21c1.91,1.2,1.93,3.11,1.86,5-.13,1.32,0,2.65-.08,4-1,3.43,0,7.74-4.29,9.67-8.21,3.17-12.84,10.67-19.26,16-2.14,1.78-5.32,3-4.48,6.83-3,4.85-8,3.09-12.26,3.67-2-.09-4-.39-6-.35-3.32-.64-7-.52-8.87-4.22-.84-4.25.77-7.08,4.77-8.83,4.47-2,7.86-5.55,11.42-8.69,10.11-8.91,21.16-16.67,31.13-25.74C957.42,511.18,958.88,510.2,960.71,512Z" transform="translate(-680.85 -279.07)"/><path class="cls-8" d="M922.47,559.16c4.41-.84,9.11-.07,13.23-2.46a32.09,32.09,0,0,0,11-5.24c.43,1.59-1.45,1.63-1.44,2.76l-.29.92a7.56,7.56,0,0,1-4,2.59c-11,4-11.2,4.13-6.71,15.28,5.31,13.2,11.05,26.22,18.25,38.55,6.16,10.54,8.5,22.36,10.54,34.16,2.71,15.67,8.92,30.09,15.05,44.56,3.52,8.3,8.54,15.79,13.33,23.4a26.34,26.34,0,0,1,3.78,9.8c.9,5.75,3.28,11,5.07,16.39.68,2.06,1.92,4.1.65,6.38-2,4.82,1.52,7.43,4.33,10.06,1.52,1.43,3.81,2,6.33,3.29-4.48,2.56-7.16.19-9.55-2.16-4-3.91-5.28-9.18-6.6-14.38-1.4-5.51-2.81-11-4.14-16.55-1.68-7-5.53-12.7-10.24-17.93-10.84-15.79-15.19-34.33-21.92-51.86-2-5.1-.74-10.95-3.05-16.06l-2.27-8.84c-4.91-7.09-8.35-15-12.35-22.57a139.79,139.79,0,0,1-20.56-43C920.19,563.61,918.8,560.82,922.47,559.16Z" transform="translate(-680.85 -279.07)"/><path class="cls-9" d="M945.29,554.21c2.15-.59,3.87-1.43,4.73,2.14A101,101,0,0,0,955.26,571c4.33,10.54,4.84,22,7.79,32.85,3.58,13.22,7.77,26.07,16.89,36.68a16.53,16.53,0,0,1,2.75,4.76c5.42,13.37,9.22,27.36,15.85,40.28,2.57,5,.66,10.89,1.06,16.35.64,8.91,2.57,17.06,7.16,24.65,4.84,8,7.55,16.8,9.52,25.86h0c-3.28,4.77-6.6,4.9-10.37.41-3.39-4-4.81-9-6.24-13.92a22.48,22.48,0,0,0-2.39-6.08c-1.24-7.91-5.3-15-6.59-22.91,3.58-1.39,4.39,1.85,5.39,3.73a102,102,0,0,1,8.82,23.83c1,4.1,2.08,8.15,5.5,11.1-5.65-17-13.91-33.1-15.64-51.24a17.05,17.05,0,0,0-1.32-8.68c-5.34-12.81-8.14-26.52-14-39.14-2.75-5.89-6.91-10.92-9.6-16.87a223.79,223.79,0,0,1-10.53-28.6c-3.68-12.38-5.56-25.31-11.57-37-1.92-3.75-4.23-7.93-2.16-12.59Z" transform="translate(-680.85 -279.07)"/><path class="cls-10" d="M1004,679.92c4.63,8.7,2,17.74,1.22,26.7-3.2-2-1.44-5.24-1.15-7.52,1.23-9.93-2.61-18.42-6.28-27.16-2.7-6.42-4.51-13.22-6.73-19.85a46.45,46.45,0,0,0-9.67-15.88c-1.34-1.53-2.78-3-1.74-5.35,12.6,11.6,16.06,27.84,21.84,42.91C1002.23,675.84,1003.11,677.87,1004,679.92Z" transform="translate(-680.85 -279.07)"/><path class="cls-10" d="M952.51,547.58c4.86,0,2.92,5,5.13,6.94,3.2,2,3.65,5.55,4.78,8.71,3.69,8,5.48,16.57,6.7,25.26.36,2.64-.06,5.34.65,8a9.51,9.51,0,0,1-.49,6A52,52,0,0,0,974,621.2l3.92,7.72c-3.13.47-3-2.31-3.83-4-4.37-9.09-6.27-18.85-7.66-28.76-2.16-15.42-6-30.36-13.1-44.33C952.69,550.61,952.76,549,952.51,547.58Z" transform="translate(-680.85 -279.07)"/><path class="cls-11" d="M991,709.75c2.77,7.61,6,15.07,7.44,23.12,1.63,6.13,4.15,12,5.49,18.22-2.19-.88-2-3.21-3-4.85-2.58-7.69-5.79-15.14-7.54-23.16-1.89-8.68-8.06-15.39-12.19-23.05-10-18.47-17.39-37.85-20.74-58.64-2.07-12.87-6.79-24.58-13.27-35.89a216.92,216.92,0,0,1-16.95-38.24c-1.55-4.58-1-8.27,4.83-9.27a43.74,43.74,0,0,0,6.32-2.05c.61,1.88-.74,2.89-2,3.49-4.07,1.93-3.58,4.84-2.43,8.35a250.17,250.17,0,0,0,14.72,34.61c3.25,6.43,4.35,13.79,8.41,19.89a16.92,16.92,0,0,1,2.41,6.72c2.22,8.16,3.6,16.58,6.33,24.54,5.26,15.32,9.86,30.92,17.44,45.37.95,1.8,2.28,3.36,3.1,5.22A12.16,12.16,0,0,1,991,709.75Z" transform="translate(-680.85 -279.07)"/><path class="cls-12" d="M956.11,640.64c.81-1.67,2-2.83,2.11.11.72,16.86,8.95,31.45,14.06,47,2.18,6.61,4.66,13.14,9.52,18.43.73.79-.13,1.71-.72,2.42-4.59-2.35-6.87-6.76-8.72-11.06-3.94-9.15-6.87-18.69-11.26-27.69C956.62,660.65,956.19,650.64,956.11,640.64Z" transform="translate(-680.85 -279.07)"/><path class="cls-1" d="M1003.94,751.08c-1.85-6.07-5.28-11.65-5.49-18.21,2.06,1.14,2.12,3.17,2.45,5.17a29.43,29.43,0,0,0,4.83,12.64c3.82,5.29,5.44,5.49,10.54,1.74-.73,5-3.29,6-8.4,3.57A7.39,7.39,0,0,1,1003.94,751.08Z" transform="translate(-680.85 -279.07)"/><path class="cls-1" d="M684.56,599.64l.34-2.46,0,0c3.61-3.42,8.2-4.41,12.86-5.4,1.89-.41,4-.9,5.45-2.43,9.26-1.85,18-5.17,26.69-8.86a7.2,7.2,0,0,0,1.63-1.4c5.12-6.43,11-11.75,19-14.51,9.58-3.29,19.12-6.71,28.52-10.5a39.51,39.51,0,0,1,17.2-3.09c3.89.21,8.24.62,11.44-2.75a5.84,5.84,0,0,1,4.43-.94c-.18,2.55.8,1.6,2.07.8,3.52-2.22,7.87-2.62,11.3-5.07a20.89,20.89,0,0,0,4.89-3.66c2-1.46,4.62-2,6.22-4.14a7.24,7.24,0,0,1,3.76-1.93c11.35-7.21,24.07-11.25,36.56-15.81,2.36-.86,4.85-2.28,7.23.1a4.87,4.87,0,0,1,.78,1.79,5.22,5.22,0,0,1-.8,3.71c-7.61,5.09-16.64,6.73-24.93,10.2-8.11,3.4-16.09,7.07-23,12.65a7.76,7.76,0,0,1-1.5,1c-6.21,2-11.76,5.65-18.06,7.46a8.65,8.65,0,0,1-2.51.84c-4.12-.16-8,1.16-11.85,2.26a9,9,0,0,1-1.84.11,46.55,46.55,0,0,0-15.08,2.91c-12.66,4.47-24.89,10.16-38,13.38a6.81,6.81,0,0,0-4.26,4.07,6.74,6.74,0,0,1-2,2.21c-8.51,6.42-18.3,10.29-28.43,12.86a168.43,168.43,0,0,0-23.85,8.38A4.25,4.25,0,0,1,684.56,599.64Z" transform="translate(-680.85 -279.07)"/><path class="cls-4" d="M804.85,549.44c1.22.93,2.34,0,3.51-.17-3.35,4-8.44,3-12.28,2.81-8.81-.55-16.35,2.78-23.81,6.08-6.27,2.77-12.83,4.52-19.23,6.71-8.56,2.92-14.79,8.85-21.53,14.25,3-6.37,7.56-11.27,14.13-13.8,12.75-4.91,25.64-9.45,38.41-14.28,3.78-1.43,7.61-1.14,11.46-1.07C798.65,550,801.77,550.23,804.85,549.44Z" transform="translate(-680.85 -279.07)"/><path class="cls-4" d="M703.19,589.38c-.68,1.89-2.51,2-4,2.5-4.84,1.57-9.79,2.84-14.29,5.33,2.15-3.56,5.66-4.93,9.46-5.34C697.48,591.53,700.22,590.14,703.19,589.38Z" transform="translate(-680.85 -279.07)"/><path class="cls-13" d="M697.84,616.18c-1.56-1.42-3.39.83-5-.38-3.8-2.55-.59-3.74,1.17-4.29,9.52-3,18.39-7.41,27.4-11.59a61.11,61.11,0,0,1,26.93-5.46,22.05,22.05,0,0,0,10-2.13c7.21-3.34,14.8-5.84,22.33-8.44a131.44,131.44,0,0,0,29.47-14c4-2.6,5.33-2.28,7.29.81-16.95,15.71-38.75,21.49-59.66,29-6,2.19-12.37.15-18.57.08-11-.88-19.6,5.54-28.75,9.87C706.27,611.74,701.24,612.49,697.84,616.18Z" transform="translate(-680.85 -279.07)"/><path class="cls-14" d="M817.48,570.74c-1.64-2.73-3.83-1.2-5.26-.18-13.65,9.72-30,13.33-44.87,20.24-10.93,5.08-22.4,4.81-33.65,6.79-5,.88-9.52,2.91-14.08,5-8.18,3.69-16,8.27-24.92,10.15-1.57.33-3.71.6-1.83,3.1-6.28,0-8.82-4.17-10.47-9.35-.76-2.74.94-4.7,2.16-6.81,1.21-.24,2.27-.15,2.71,1.26,1,1.8-.51,4,.89,5.69,2.89,3.47,6.37,3,10.12,1.77,9.11-3.08,17.57-7.69,26.57-11.07a73.11,73.11,0,0,1,22-5.08,37.7,37.7,0,0,0,11.84-2.63c7.58-3,15.2-5.87,22.91-8.47,11.07-3.72,21.33-9,31.53-14.67,7.38-4.08,15.61-6.47,24-8.4a327.68,327.68,0,0,0,50.58-16.17,10.43,10.43,0,0,1,2.63-.87c2.3.51,3.58,1.78,3.25,4.29-2.29,2.49-5.69,2.4-8.54,3.6-14.45,6.1-29.3,11.07-44.78,13.64-6.7,1.11-13.26,2.17-18.53,5,3.66-.82,7.42-4.2,12.39-3.76a1.7,1.7,0,0,1,.35,1.76c-3.56,2.26-8,1.56-11.66,3.39Z" transform="translate(-680.85 -279.07)"/><path class="cls-15" d="M884.2,520q-.07-.51-.11-1c-.08-1.77-1-3.43-.63-5.26.81-7.81,4.27-14.44,9-20.51,1-1.76,3.41-1.27,4.6-2.79l4.43-4c1.5-3.17.3-6.13-.75-9.09-4-11.16-8.69-22.07-12-33.45-2.72-9.39-4.61-19-8.91-27.91a3.12,3.12,0,0,1,.76-4c2.82.37,4.15,2.49,4.85,4.78,3.47,11.32,8,22.27,11.06,33.74,2.6,9.86,6.67,19.23,10.29,28.75a2.53,2.53,0,0,0,2.25,1.92c1.07-2.15-.09-4.17-.82-6.06-3.78-9.84-6.79-20-11.72-29.38-1.76-3.35-3.74-6.92-2.62-11.07,3.61-1.05,3.62,2.15,4.6,4,5.85,11.08,9.62,23,14,34.67.77,2,1.1,4.35,3.33,5.48a11.72,11.72,0,0,0,4.21.23,7.61,7.61,0,0,1,2.49.05,3.1,3.1,0,0,1,1.92,1.4c.66.94-2.6,2.44.92,3.31,4,1,6.88,4.12,7.91,8.46a6.35,6.35,0,0,1,0,1.56c-.55,3.38-4.11,5.43-4,9.11a159.58,159.58,0,0,1-24.06,32.29,11.22,11.22,0,0,1-8.48,3.49c-5.37-1.75-8.16-6-10.2-10.84C885.59,525.34,885.18,522.6,884.2,520Z" transform="translate(-680.85 -279.07)"/><path class="cls-16" d="M922.67,480l-2.07.34c-2.56-.33-3.85-2.07-4.54-4.31-5.88-18.95-15.6-36.22-23.64-54.22-1.72-3.86-3.85-7.53-5.05-11.62-.74-2.51-1.41-5-.2-7.52-.45-3.8-.2-7.84-1.45-11.35-7-19.76-11.45-40.53-23.78-58.18-6.28-9-9.37-19.55-12.16-30A126.54,126.54,0,0,0,844.21,287c-2.06-4.93-6.81-4.91-11.37-4.79,4.25-5.12,12.52-3.72,15.52,2.76,1.93,4.18,3.33,8.62,5,12.94,1.4,5,2.84,10,4.17,15A36.15,36.15,0,0,0,869,331.26a1.46,1.46,0,0,1,.72,2.17c-1.36.65-1.35,1.62-.44,2.62,5.18,5.67,7,13,9.63,19.88,1.85,4.85,3.28,9.88,5.47,14.57,5.18,11.14,6.35,23.09,7.54,35,.58,5.87,4,10.78,4.75,14.8-.91-2.46-2.46-6.46-3.84-10.52-.4-1.17-1.87-2.76.56-3.59,2.94,3.45,3.42,8.1,5.84,11.83.87,1.33,1.21,3,2.21,4.33a8.07,8.07,0,0,1,.88,1.74,6.79,6.79,0,0,1,.36,2.87,6.77,6.77,0,0,0,1.38,5.68c9.13,13,13.06,28.26,19,42.65A4.56,4.56,0,0,1,922.67,480Z" transform="translate(-680.85 -279.07)"/><path class="cls-17" d="M880.9,411.9c-.61,1.54.08,2.9.59,4.28,7.84,21.17,13.65,43.05,22.3,63.94,1.22,2.94,1.73,5.37-2.26,6.32-6-15-11.86-30-15.49-45.78-1.64-7.14-2.71-14.44-5.74-21.2a68.61,68.61,0,0,0-4.88-10.08l-.84-2c-12.74-17-17.74-37.32-24.55-56.88-1.38-4-.49-8-.86-12.05h0c-.67-10.32-5.1-19.45-9.45-28.51-2.72-5.67-4.57-11.61-6.83-17.42-.4-1,0-1.76,1.21-1.88,5.08,5,6.85,11.78,9.41,18,4.87,11.77,8.36,24,12,36.28,6.3,21,13.09,42.08,24,61.39C880.57,408,881.92,409.68,880.9,411.9Z" transform="translate(-680.85 -279.07)"/><path class="cls-18" d="M833.88,290.67c-.09,6.29,2.8,11.76,5.53,17,4.44,8.56,7,17.8,10.53,26.65a3.56,3.56,0,0,1-.77,4.08c-2.57-15.17-10.87-28.22-15.71-42.56a19.39,19.39,0,0,1-1.41-5.32c-.09-2.62.33-5.45,3.47-6.24,2.77-.69,4.26,1.08,5.65,3.37a61.16,61.16,0,0,1,7.76,20.6c.72,3.77,2.55,7.34,3.87,11,3,4,2.94,9.31,6,13.24,1.23,3.68,4,6.4,6,9.62,2.35,3,3,6.73,4.28,10.15,7.73,20.19,15,40.5,20.16,61.58,1.26,5.16,4,10.31,6.71,15.09,9,16.06,15.09,33.29,21.18,50.54a2.91,2.91,0,0,1,0,1.1c-3.64,1.61-3.91-1.42-4.7-3.52-4.81-12.7-9-25.64-15.13-37.81-.89-1.77-1.13-3.93-3-5.11-2.26-.65-3.07-2.6-3.74-4.51-4.38-12.56-8.81-25.06-12.46-37.91-5.14-18.09-11-36.17-20.72-52.59a104.68,104.68,0,0,1-11.39-28.82,73.71,73.71,0,0,0-5.51-15.12C839.15,292.68,837.88,289.55,833.88,290.67Z" transform="translate(-680.85 -279.07)"/><path class="cls-19" d="M917.08,480.59c-1.87-1.45-2.52-3.61-3.25-5.71A461.63,461.63,0,0,0,889,416.32c-2.84-5.6-3.57-12.34-4.84-18.65-1.73-8.58-5-16.63-8-24.78-3.76-10.26-7.57-20.51-11.37-30.76,2.21,1,2.33,3.23,3,5.06,5.12,13.71,10.12,27.47,15.27,41.18,1.76,4.68,1.61,9.89,4.1,14.34,3.74,16.69,12.92,31.06,20,46.31,3.82,8.25,6.46,16.88,9.94,25.22.92,2.2,1.34,4.66,3.51,6.14C919.46,481.11,918.27,480.79,917.08,480.59Z" transform="translate(-680.85 -279.07)"/><path class="cls-18" d="M849.17,338.42c2.52,18.65,11.47,35.22,17,52.89,1.86,5.91,7,10,8.37,16-7.39-7-12-15.61-15.15-25.12-3.59-10.87-8.76-21.18-11-32.54C847.63,345.69,848.34,342.14,849.17,338.42Z" transform="translate(-680.85 -279.07)"/><path class="cls-18" d="M875.42,409.38c2.18,3.09,5.26,5.75,4.88,10.08C877.27,416.78,876.9,412.81,875.42,409.38Z" transform="translate(-680.85 -279.07)"/><path class="cls-19" d="M858.81,332.52c-3.79-3.6-3.88-8.88-6-13.24C856.58,322.88,856.65,328.17,858.81,332.52Z" transform="translate(-680.85 -279.07)"/><path class="cls-20" d="M1105.42,438.42a1.25,1.25,0,0,1-1.51,1.2c-8.59-1.48-16.33,1.45-24,4.6-12.56,5.15-25.89,8.38-37.8,15.13,1.7-3.6,4.9-5.37,8.38-6.67,12.84-4.79,25.71-9.49,38.54-14.29C1094.51,436.33,1100,437.72,1105.42,438.42Z" transform="translate(-680.85 -279.07)"/><path class="cls-20" d="M1033.83,465.76c0-.21-.08-.42-.14-.62l8.43-5.84C1040.69,463.16,1037.23,464.44,1033.83,465.76Z" transform="translate(-680.85 -279.07)"/><path class="cls-21" d="M1017.39,498.2l-3.26,1.1a3.38,3.38,0,0,0-3.63.47c-11.75,8.56-25.23,13.45-38.78,18.15-2.77,1-5.21,2.78-8.22,3.09l-.9-.23q-.33-2.8-.65-5.6c10.85-1.85,20.93-6.17,30.74-10.76,20.12-9.41,39.49-20,62.19-23.23,11.48-1.61,22.3-7.7,33.48-11.62a75.8,75.8,0,0,0,20.52-10.63c10.27-7.64,22.76-10.1,34.65-13.81a86.61,86.61,0,0,0,10.47-3.54c7-3.21,8.28-6.84,5.62-14.78,5.81,2.05,4.82,6.82,5.06,11-2.14,4.95-6.1,7.53-11.16,8.88-8.66,2.31-17.29,4.76-25.91,7.2a37.6,37.6,0,0,0-9.94,4.61c-3.35-.06-5.18,2.46-7.25,4.42a40.78,40.78,0,0,1-14.87,9.37c-11.19,3.87-22.25,8.11-33.39,12.11-5.79,2.08-12.2,1.14-17.82,3.87l-7.64,1.7A76.83,76.83,0,0,0,1017.39,498.2Z" transform="translate(-680.85 -279.07)"/><path class="cls-22" d="M1044.35,488.28c1.21-2.57,3.76-2.88,6-3.25,17.74-2.91,33.91-10.6,50.5-16.87,5.07-1.92,9-6.77,13.58-10.12.85-.63,2.68-3.07,3.2.48-1.16.91-2.63,1.59-3.41,2.75-6.47,9.69-17,12.35-27,16-6.25,2.28-12.64,4.26-18.69,7C1060.75,487.77,1052.63,488.25,1044.35,488.28Z" transform="translate(-680.85 -279.07)"/><path class="cls-23" d="M932.61,493.82c-.09-.33-.16-.66-.23-1,2.33-5.76,5.81-7.72,11.31-6.21,1.75.48,3.4,1.27,5.29.92,9-1.77,17.1-6,25.72-8.76,7.05-2.26,14.13-4.46,21.71-3.39l.83.53c-4.08,4.67-10.09,3.83-15.28,5.12-9.4,2.34-18.13,6.44-27.25,9.51-1.58.53-3,1.72-1.34,3.16,1.26,1.1,1.57,4.55,5,2.26,4.56-3.1,9.53-5.28,15.43-4.92a13.53,13.53,0,0,0,7.34-2.2c9.18-5.66,19.85-5.61,29.82-8.21,8.92-2.33,17.46-5.09,25.5-10.16,6.07-3.83,12.06-8.08,19.21-10.49,12.43-4.19,24.88-8.42,36.9-13.84,3.13-1.41,7.26-.91,10.92-.85,13,.2,23.53-6.88,34.92-11.45,5.54-2.22,10.61-6.19,17.17-4.41-.78,1.89-2.49,2.66-4.2,3.4-16.14,7-32.22,13.76-49.68,17.36-15.34,3.15-30.33,8.3-43.79,16.86a11.58,11.58,0,0,1-1.48.77c-16,7.18-31.93,14.49-49.3,17.87a24.13,24.13,0,0,0-5.95,1.18c-13.32,5.35-27.81,7.46-40.53,14.53a6.33,6.33,0,0,1-2.7.46c-8.23-.44-12.84,5.73-18.23,10.26-9.75,8.19-19.49,16.41-28.37,25.57a8.51,8.51,0,0,1-3.64,2.47c-4.59,1.28-7.5,4.37-9.66,8.39a2.7,2.7,0,0,1-2.47,0c-1.25-.78-2.28-1.72-2.23-3.36l-2.54-3.71a2.61,2.61,0,0,1-1.51-2.6c2.12-3.17,5.2.18,7.6-1.11,8.59-1.86,12.55-9.18,17.4-15.21,5.16-6.42,9.61-13.4,14.37-20.13C928.88,499,932.52,497.25,932.61,493.82Z" transform="translate(-680.85 -279.07)"/><path class="cls-24" d="M1006.31,484.45c9.1-3.07,19.11-4.29,27.37-8.59,8.68-4.52,18.72-6.43,26.27-13.13a7.25,7.25,0,0,1,2.45-1.25c15.54-5.34,30.4-12.78,46.9-15.11,9.85-1.39,18.79-5.59,27.75-9.47,6.11-2.65,12.29-5.09,18.5-7.47l0,0c2.86,2.2,2.5,4.2-.32,6.12a48.12,48.12,0,0,1-12.91,6.17c-8.81,2.73-17.52,5.76-26,9.31-3.58,1.49-6.42,4.35-10.09,5.75a367,367,0,0,1-46.32,17,357.39,357.39,0,0,0-34.13,11.82l-1,.4c-3.41.58-5.48,4.05-9.08,4.21-13.07,5.16-26,10.76-39.26,15.31-2.83,1-5.64,1.95-8.67,1.23-2-.47-4.2-.9-4.63-3.33s1.2-3.64,3-4.8a37.28,37.28,0,0,1,8.15-3.51C984.92,491.48,995.47,487.52,1006.31,484.45Z" transform="translate(-680.85 -279.07)"/><path class="cls-25" d="M897.27,548.39c.6-5.52,4.08-8.16,9.17-9.28,2.09-.46,3.43-2.06,4.84-3.53,11.63-12.07,25-22.2,37.41-33.4,2.41-2.18,5.32-.88,7.88-1.72,4,1.55,5.77,4.5,5.37,8.77L960.71,512c-1.06,0-2.17-.42-3.11.57-10.85,11.38-24.18,19.83-35.85,30.25-2.89,2.58-5.42,5.68-9.83,6.53-3,.58-1.6,4.49-2.73,6.68-4.9,1.25-7.65-2.45-11-4.77C897.5,550.4,896.73,549.6,897.27,548.39Z" transform="translate(-680.85 -279.07)"/><path class="cls-26" d="M961.93,509.22l-5.37-8.77c3.4.43,5.75-2,8.54-3.17,12.51-5.35,25.94-7.94,38.56-13,.74-.3,1.75.07,2.64.12L973.49,496.7c-2.26.84-4.55,1.58-6.45,3.18-1.2,1-3.56,1.35-2.92,3.46.55,1.81,2.78,1.5,4.3,1.92,2.45.67,4.76-.28,7-1.12,11.47-4.25,22.93-8.54,34.42-12.74,1.84-.67,3.59-2.13,5.78-1.19l-4.19,1.91c-14.24,6.64-28.82,12.44-43.6,17.75a8,8,0,0,1-5.44.21A3.29,3.29,0,0,0,961.93,509.22Z" transform="translate(-680.85 -279.07)"/><path class="cls-23" d="M1106.17,456c11.59-7.88,24.7-12,38-15.77,3.31-.93,6.35-2.87,9.4-4.56,2.53-1.4,3.87-3.41,1.94-6.3,5.25,1,3.57,4,1.37,6.15a21.93,21.93,0,0,1-8,4.68c-11.06,3.92-22.09,7.93-33.06,12.1a95.89,95.89,0,0,0-9.31,4.7l-.54-.39Z" transform="translate(-680.85 -279.07)"/><path class="cls-25" d="M1106.51,457a27.71,27.71,0,0,1-9.75,5.88c-13.08,4.82-26,10.07-39.27,14.37-10.73,3.49-21.83,5.86-32.76,8.72l-.18-.15c12.06-5.74,25-8.88,37.65-12.9q19.29-6.13,37.94-14c2-.86,3.95-2,6.25-2.06Z" transform="translate(-680.85 -279.07)"/><path class="cls-25" d="M962.42,510.08c10.63-1.79,20.21-6.44,29.94-10.76,6.21-2.76,12.73-4.82,19.1-7.19-3.84,3.24-8.54,5-13,6.91-10.09,4.2-20.44,7.76-30.71,11.49C966,511.16,964,512.85,962.42,510.08Z" transform="translate(-680.85 -279.07)"/><path class="cls-8" d="M917.49,558.76a20.7,20.7,0,0,1,1.14,3.11c.38,1.9,2.64,4.23,1.11,5.46-1.34,1.07-4.23.63-6.32.24-8.3-1.56-14.17-7.27-20.36-12.38-1.43-1.18-.75-2.32.66-3,1.68-.75,3.44-1.33,5.16-2,3.15,2.43,6.37,4.75,10.32,5.74C911.63,557.9,914.68,558,917.49,558.76Z" transform="translate(-680.85 -279.07)"/><path class="cls-27" d="M958.85,623.14a9.69,9.69,0,0,1-1.61-2.17c-6.56-17.89-15.75-34.69-21.9-52.75-2.59-7.62-2.74-7.55,4.41-10.91a8.6,8.6,0,0,0,1.67-1.38l4.11-1.49a129.2,129.2,0,0,0,6.05,16.91c4.76,10.26,6.08,21.63,9.31,32.42,3.72,12.44,7.64,24.72,14.71,35.75a101.63,101.63,0,0,1,12.81,30.19c1.72,6.79,4.64,13.28,7.08,19.89.92,2.48,1.68,4.93.57,7.54-2.25-.66-3-2.65-3.79-4.49-.77-1.69-1.34-3.45-2-5.18-4-10.72-7.38-21.71-14-31.32-5.32-7.74-7.23-16.85-10-25.7-6-19.61-13.94-38.55-21.29-59-2.12,3.78-.72,6.09.05,8.27,4.23,11.86,8.73,23.62,13,35.47C959,617.72,960.49,620.31,958.85,623.14Z" transform="translate(-680.85 -279.07)"/><path class="cls-28" d="M958.85,623.14q-7.56-20.6-15.11-41.21c-1.07-2.95-2.28-5.86-2.42-9.09-.08-1.85.21-3.49,2.14-4s3,.91,3.66,2.62c2.53,6.77,5.13,13.51,7.59,20.31,6.42,17.73,13.43,35.26,17.73,53.71,1.08,4.64,4.31,8.72,7,12.42,6,8.18,7.88,17.87,11.76,26.79,1.77,4.07,3.22,8.28,4.82,12.42,1.88,15.4,8.51,29.29,13.84,43.59,1,2.75,2.43,5.36,3.54,8.09.49,1.2.79,2.63-.5,3.53-1.59,1.1-2.84,0-3.81-1.13-3.47-4-4.9-9-6.3-14-2.48-8.88-5.17-17.7-9.89-25.74-.47-.8-.87-1.63-1.94-1.75-1.71-.77-2-2.43-2.54-4-.65-3.89-2.91-7.09-4.46-10.6a245.56,245.56,0,0,1-15.12-44.55c-1.68-7.32-4.89-14.33-7.53-21.44Z" transform="translate(-680.85 -279.07)"/><path class="cls-29" d="M961.35,629.2c4.23,7.88,7.86,15.87,10,24.75,2.91,12.19,6.4,24.32,11.66,35.83,2.35,5.14,5.36,10.09,5.47,16a230.47,230.47,0,0,1-23.86-63.95C963.73,637.56,960.69,633.86,961.35,629.2Z" transform="translate(-680.85 -279.07)"/><path class="cls-30" d="M896.89,537.75c-2.19,3.52-4.77.55-7.17.42-.76,3.15-3.29,4.18-6,5.2-15,5.73-30.19,11-45.9,14.71a119.93,119.93,0,0,0-35.35,14.2c-7,4.33-14.87,6.47-22.54,9.14-8.4,1.07-15.74,5.39-23.72,7.73-2.27.66-4.78,2.79-7-.3.85-2.11,2.74-3,4.66-3.65,22.48-7.14,42.89-19.39,65.35-26.58,16.75-5.36,33.81-9.74,50.22-16.18A69.33,69.33,0,0,0,881,536.9c1.06-.66,2.67-1.31,2.16-2.83-.71-2.12-2.57-1-3.76-.59-15.1,5.64-30.49,10.5-45.21,17.14-8.44,3.8-17,7.27-25.41,11.2-5,2.34-10.51,1.94-15.72,3.25-14.63,3.66-28.35,9.83-42.54,14.69-2.79,1-5.46,2.38-8.55,2.15-2-.47-2-1.6-.95-3l.72-1.42a9.87,9.87,0,0,1,5.41-3.62c12.52-3.76,24.57-8.81,36.82-13.29,5.73-2.1,11.48-3.78,17.59-4.07h0c4.36.76,8-2.58,12.28-2.19l2-.73c6.75-1.26,12.3-5.28,18.43-8l1-.39c13.11-8.36,27.75-13.25,42.21-18.55,2.41-.88,5-1.49,6.11-4.25l.53-2.37c1.42.25,2.13.54,2.44,2.5A20.56,20.56,0,0,0,896.89,537.75Z" transform="translate(-680.85 -279.07)"/><path class="cls-31" d="M749.43,588.75c3,1.21,5.23-1,7.78-1.65,7.5-2,14.23-6.56,22.23-7-1,2.64-3.5,3.09-5.7,3.91-11.72,4.32-23.21,9.47-36,10-6.61.81-12.5,3.7-18.47,6.37-6.65,2.69-12.92,6.28-19.72,8.56-7,2.34-10.46,1.25-14-3.65a8.17,8.17,0,0,1,1.73-4.36c7.58-4.25,15.76-6.76,24.1-9.16,8.58-2.46,17.51-4.53,24.76-10.43,1.38-1.12,3.25-1.64,4.89-2.43l-.35,2.4c-1.56,4.91-6.11,6.3-10.08,7.92-8,3.29-16.12,6.57-24.69,8.43a32.54,32.54,0,0,0-12.11,5.15c5.32.84,10-1.14,14.54-3.43a111.29,111.29,0,0,1,34.16-11.21C744.86,587.78,747.26,587,749.43,588.75Z" transform="translate(-680.85 -279.07)"/><path class="cls-32" d="M883.67,522.41c.57,3-1.08,4.27-3.68,5.16-4.89,1.66-9.62,3.82-14.55,5.29-10.46,3.12-19.8,8.88-30.1,12.35,5.68-6.74,14-9.44,21.53-12.81C865.49,528.51,874.78,525.87,883.67,522.41Z" transform="translate(-680.85 -279.07)"/><path class="cls-32" d="M801.57,556.49c-20.57,5.2-39.88,14-59.82,21,.34-3.07,2.76-4.58,5.12-5.16,14-3.41,27.06-9.69,40.68-14.26C792.14,556.51,796.74,555.56,801.57,556.49Z" transform="translate(-680.85 -279.07)"/><path class="cls-33" d="M839.88,534.32l11.29-7.12a8.67,8.67,0,0,1,4.66-4.52c7.7-3.15,15.53-6,23.41-8.67,1.74-.59,3.6-1,5.32.24a8.56,8.56,0,0,1-.47,4.76c-1.84-2.75-4-1-5.87-.24-12.29,4.92-25.5,7.79-36.19,16.27C841.1,535.77,840.33,535.36,839.88,534.32Z" transform="translate(-680.85 -279.07)"/><path class="cls-32" d="M834.32,545.59c-5.87,3.29-11.13,8-18.43,8Z" transform="translate(-680.85 -279.07)"/><path class="cls-32" d="M813.85,554.3c-4.09.72-7.56,5-12.27,2.19C805.55,555.15,809.38,552.94,813.85,554.3Z" transform="translate(-680.85 -279.07)"/><path class="cls-4" d="M813.34,547.18c5,1.25,8.74-2.66,13.26-3.4-4.39,3.95-10.17,4.41-16.14,7.1l2.25-3A5,5,0,0,1,813.34,547.18Z" transform="translate(-680.85 -279.07)"/><path class="cls-34" d="M685.55,605.27a15.82,15.82,0,0,0,18.32,1.3c4.82-2.93,10.11-4.46,15.2-6.61a74.71,74.71,0,0,1,17.88-6.58c15-1.91,28.55-8.21,42.5-13.33,18.43-5.65,34.43-17.27,53.22-21.92a413.81,413.81,0,0,0,50.6-16.38c2.33-.91,4.68-1.71,6.46-3.58l1.08,3.3c-1.53,1.77-3.69,2.36-5.75,3.21-17,7-34.62,11.65-52.42,16-7.65,1.87-15.25,4.56-22,9-11.56,7.64-24.84,11.32-37.55,16.36-11.57,4.58-23.3,8-35.82,9.09-7,.6-13.35,4.25-19.84,6.94-6.95,2.87-13.82,5.94-20.89,8.48C691.53,612.38,687.75,610.27,685.55,605.27Z" transform="translate(-680.85 -279.07)"/><path class="cls-13" d="M895.67,547.81c-8,5-17,7.42-25.84,10.2-11.6,3.64-23.74,4.29-35.58,6.63-5.54-.84-9.78,3.56-16.61,4a113.35,113.35,0,0,1,22.06-7.5,253.65,253.65,0,0,0,46.09-14.4,22.15,22.15,0,0,1,7.55-1.56Z" transform="translate(-680.85 -279.07)"/><path class="cls-35" d="M833.88,290.67c-.1-1.28-.47-2.77,1-3.44,1.72-.77,2.73.61,3.71,1.71,5.3,5.9,6.81,13.52,9,20.72a181.56,181.56,0,0,0,13,31.72,246.29,246.29,0,0,1,21.1,57.15c3,12.34,8.17,23.8,12.45,35.63,5.33,14.17,11.93,27.85,16.6,42.28.46,1.41,1.07,2.78,1.38,4.21.43,2-.7,3.08-2.44,3.77-2,.81-3.18,0-3.79-1.91-3.71-11.41-8.92-22.27-11.78-34-1.94-8-5.31-15.62-8.12-23.39-1.61-4.44-1.6-9.51-5.16-13.19-13.39-19.59-20.5-42.12-26.65-64.41C848.84,327.9,841.23,309.41,833.88,290.67Z" transform="translate(-680.85 -279.07)"/><path class="cls-36" d="M922.67,480c-5.71-15.82-10.5-32-19.87-46.28-2.62-4-2.75-4.83-.94-6.71,5.54,3.19,6.49,9.63,10,14.31,7.36,9.9,10.18,22,14.39,33.38.64,1.73,1,3.58-.22,5.3a2.28,2.28,0,0,1-1.88.5Z" transform="translate(-680.85 -279.07)"/><path class="cls-37" d="M924.13,480.55a1.86,1.86,0,0,1,1-.44c7.77-2.06,19.72,2.73,23,9.21-.54,0-1.24.24-1.62,0-6-4-10.23-.91-14.14,3.5-2.28-5.34-2.28-5.34-13.71-9.47C920.15,481.65,923.31,483.29,924.13,480.55Z" transform="translate(-680.85 -279.07)"/><path class="cls-37" d="M932.61,493.82c1,3.94-2.34,5.86-3.94,8.59C927,498.18,931.52,496.79,932.61,493.82Z" transform="translate(-680.85 -279.07)"/><path class="cls-38" d="M869.66,333.24c5.38,4.17,7.67,10.13,9.77,16.31,2.62,7.72,5.18,15.51,8.54,22.92,3.8,8.37,4.5,16.92,3.78,25.84a15,15,0,0,0,1.51,8.07c-.6,6.19,3.86,11,4.29,16.91-3.56-8.79-8-17.38-8.56-27a64.73,64.73,0,0,0-4.62-20.41c-2.79-7.06-5.57-14.15-7.87-21.38A65.32,65.32,0,0,0,863,330.7Z" transform="translate(-680.85 -279.07)"/><path class="cls-39" d="M997.79,510c-9.9,3.72-19.77,7.48-29.71,11.09-1.61.58-3.73,2.66-5.11-.52,2.24-1.23,4.35-2.76,6.72-3.63,14.18-5.17,28.36-10.29,41.14-18.58.88-.57,3.16-2.79,3.29.9A121.22,121.22,0,0,0,997.79,510Z" transform="translate(-680.85 -279.07)"/><path class="cls-40" d="M1106.39,456.84c-14.94,7.93-31,13.11-47,18.35-11.52,3.79-23.52,6.19-34.88,10.66,5.27-4,11.62-5.59,17.68-7.65,21.36-7.27,43-13.86,63.94-22.19C1106.25,456.29,1106.32,456.56,1106.39,456.84Z" transform="translate(-680.85 -279.07)"/><path class="cls-41" d="M749.43,588.75a124.1,124.1,0,0,0-40.56,12.39c-4.74,2.43-9.82,4.4-15.31,4.43-1.48,0-3.74.49-4.11-1.76-.32-2,1.43-2.84,3-3.38q13.65-4.57,27.32-9.09c7.39-2.44,14.56-5.32,20.84-10.06,13.38-5,26.78-9.88,40.15-14.88,10.53-3.93,22.2-3.61,32.41-8.52,20.56-9.9,42-17.69,63.34-25.57,1.56-.58,3.13-1.17,4.72-1.66s3.83-1.76,4.62.93c.72,2.43,1.22,4.94-2.06,6.55a235.14,235.14,0,0,1-35.2,13.58c-22.65,6.92-45.3,13.55-66.52,24.55C771.83,581.59,760.37,584.66,749.43,588.75Z" transform="translate(-680.85 -279.07)"/><path class="cls-1" d="M736.94,593.38,719.07,600A36.76,36.76,0,0,1,736.94,593.38Z" transform="translate(-680.85 -279.07)"/></g></svg>